<svg width="40" height="40" viewBox="0 0 40 40" fill="none" xmlns="http://www.w3.org/2000/svg">
<path d="M37.8372 14.2045C38.4298 16.0296 38.75 17.9774 38.75 20C38.75 30.3554 30.3554 38.75 20 38.75C13.3518 38.75 7.51178 35.2899 4.18241 30.0723H21.5245C22.2249 30.0723 22.8953 29.9533 23.5256 29.7352C25.2267 29.1401 26.5876 27.8013 27.188 26.1054C27.4082 25.4806 27.5282 24.8161 27.5282 24.1218C27.5282 23.4277 27.4081 22.7633 27.188 22.1386C26.5877 20.4526 25.2367 19.1039 23.5256 18.5088C23.3856 18.4593 23.2456 18.4196 23.1055 18.3799C22.6052 18.2411 22.0748 18.1714 21.5245 18.1714H17.5222C16.4215 18.1714 15.5208 17.279 15.5207 16.1881C15.5207 15.0972 16.4215 14.2045 17.5222 14.2045H37.8372Z" fill="#0C0C0C"/>
<path d="M20 1.25C26.779 1.25 32.7175 4.84761 36.011 10.2376H17.5222C16.8217 10.2376 16.1511 10.3566 15.5207 10.5748C13.8197 11.1698 12.459 12.5087 11.8586 14.2045C11.6385 14.8293 11.5184 15.4939 11.5184 16.1881C11.5184 16.8822 11.6385 17.5466 11.8586 18.1714C12.459 19.8573 13.8097 21.206 15.5207 21.8011C15.6608 21.8507 15.801 21.8904 15.9411 21.93C16.4414 22.0689 16.9718 22.1386 17.5222 22.1386H21.5245C22.6251 22.1386 23.5256 23.031 23.5256 24.1218C23.5256 25.2128 22.6252 26.1054 21.5245 26.1054H2.26691C1.6081 24.1915 1.25 22.1376 1.25 20C1.25001 9.64467 9.64467 1.25001 20 1.25Z" fill="#0C0C0C"/>
</svg>
